<mxfile host="app.diagrams.net" modified="2023-06-14T06:47:15.753Z" agent="Mozilla/5.0 (Macintosh; Intel Mac OS X 10_15_7) AppleWebKit/537.36 (KHTML, like Gecko) Chrome/114.0.0.0 Safari/537.36" version="21.3.7" etag="_y_WYqm0Zt1weB3v3ROS" type="github">
  <diagram name="Page-1" id="S5nTSYVUdVHSJWs6qtzp">
    <mxGraphModel>
      <root>
        <mxCell id="0" />
        <mxCell id="1" parent="0" />
      </root>
    </mxGraphModel>
  </diagram>
</mxfile>
